{
    "asset" : {
        "generator" : "Khronos glTF Blender I/O v1.8.19",
        "version" : "2.0"
    },
    "scene" : 0,
    "scenes" : [
        {
            "name" : "Scene",
            "nodes" : [
                0,
                1,
                2,
                3,
                4,
                5,
                6
            ]
        }
    ],
    "nodes" : [
        {
            "name" : "EmptyCenter"
        },
        {
            "mesh" : 0,
            "name" : "CasperBody"
        },
        {
            "mesh" : 1,
            "name" : "Eye",
            "scale" : [
                0.20621342957019806,
                0.20621342957019806,
                0.20621342957019806
            ],
            "translation" : [
                0.2936312258243561,
                1.2701367139816284,
                0.2936876118183136
            ]
        },
        {
            "mesh" : 2,
            "name" : "EyeBrows",
            "rotation" : [
                0,
                0,
                -0.12765416502952576,
                0.9918187260627747
            ],
            "scale" : [
                0.12851381301879883,
                0.025513213127851486,
                0.12851381301879883
            ],
            "translation" : [
                0.2692795991897583,
                1.6391092538833618,
                0.2725569009780884
            ]
        },
        {
            "mesh" : 3,
            "name" : "Head",
            "scale" : [
                0.5994558930397034,
                0.5143249034881592,
                0.5143249034881592
            ],
            "translation" : [
                0,
                1.2252867221832275,
                0
            ]
        },
        {
            "mesh" : 4,
            "name" : "Mouth",
            "rotation" : [
                0.898438572883606,
                0,
                0,
                0.4390992820262909
            ],
            "scale" : [
                0.17870287597179413,
                0.08540862798690796,
                0.08540862798690796
            ],
            "translation" : [
                0,
                0.8950061798095703,
                0.383472204208374
            ]
        },
        {
            "mesh" : 5,
            "name" : "Background",
            "rotation" : [
                0.7071068286895752,
                0,
                0,
                0.7071068286895752
            ],
            "scale" : [
                2.320077896118164,
                2.320077896118164,
                2.320077896118164
            ],
            "translation" : [
                0,
                0.3111135959625244,
                -0.8718776702880859
            ]
        }
    ],
    "materials" : [
        {
            "doubleSided" : true,
            "emissiveFactor" : [
                0.4575223922729492,
                0.4575223922729492,
                0.4575223922729492
            ],
            "name" : "MatBody",
            "pbrMetallicRoughness" : {
                "baseColorFactor" : [
                    0.038791440427303314,
                    0.638303279876709,
                    1,
                    1
                ],
                "metallicFactor" : 0,
                "roughnessFactor" : 0
            }
        },
        {
            "doubleSided" : true,
            "name" : "MatEye",
            "pbrMetallicRoughness" : {
                "baseColorFactor" : [
                    0.002799489302560687,
                    0.5497270822525024,
                    0.8000000715255737,
                    1
                ],
                "metallicFactor" : 0,
                "roughnessFactor" : 0.5
            }
        },
        {
            "doubleSided" : true,
            "name" : "MatPupil",
            "pbrMetallicRoughness" : {
                "metallicFactor" : 0,
                "roughnessFactor" : 0.5
            }
        },
        {
            "doubleSided" : true,
            "name" : "MatLips",
            "pbrMetallicRoughness" : {
                "baseColorFactor" : [
                    0.7953726649284363,
                    0.7601474523544312,
                    1,
                    1
                ],
                "metallicFactor" : 0,
                "roughnessFactor" : 0
            }
        },
        {
            "doubleSided" : true,
            "name" : "MatTeeth",
            "pbrMetallicRoughness" : {
                "metallicFactor" : 0,
                "roughnessFactor" : 0.5
            }
        },
        {
            "doubleSided" : true,
            "emissiveFactor" : [
                1,
                1,
                1
            ],
            "name" : "Bg",
            "pbrMetallicRoughness" : {
                "metallicFactor" : 0,
                "roughnessFactor" : 0.5
            }
        }
    ],
    "meshes" : [
        {
            "name" : "Cube",
            "primitives" : [
                {
                    "attributes" : {
                        "POSITION" : 0,
                        "NORMAL" : 1,
                        "TEXCOORD_0" : 2
                    },
                    "indices" : 3,
                    "material" : 0
                }
            ]
        },
        {
            "name" : "Sphere.001",
            "primitives" : [
                {
                    "attributes" : {
                        "POSITION" : 4,
                        "NORMAL" : 5,
                        "TEXCOORD_0" : 6
                    },
                    "indices" : 7,
                    "material" : 1
                },
                {
                    "attributes" : {
                        "POSITION" : 8,
                        "NORMAL" : 9,
                        "TEXCOORD_0" : 10
                    },
                    "indices" : 11,
                    "material" : 2
                }
            ]
        },
        {
            "name" : "Sphere.002",
            "primitives" : [
                {
                    "attributes" : {
                        "POSITION" : 12,
                        "NORMAL" : 13,
                        "TEXCOORD_0" : 14
                    },
                    "indices" : 15
                }
            ]
        },
        {
            "name" : "Sphere",
            "primitives" : [
                {
                    "attributes" : {
                        "POSITION" : 16,
                        "NORMAL" : 17,
                        "TEXCOORD_0" : 18
                    },
                    "indices" : 19,
                    "material" : 0
                }
            ]
        },
        {
            "name" : "Torus",
            "primitives" : [
                {
                    "attributes" : {
                        "POSITION" : 20,
                        "NORMAL" : 21,
                        "TEXCOORD_0" : 22
                    },
                    "indices" : 23,
                    "material" : 3
                },
                {
                    "attributes" : {
                        "POSITION" : 24,
                        "NORMAL" : 25,
                        "TEXCOORD_0" : 26
                    },
                    "indices" : 27,
                    "material" : 4
                }
            ]
        },
        {
            "name" : "Plane",
            "primitives" : [
                {
                    "attributes" : {
                        "POSITION" : 28,
                        "NORMAL" : 29,
                        "TEXCOORD_0" : 30
                    },
                    "indices" : 31,
                    "material" : 5
                }
            ]
        }
    ],
    "accessors" : [
        {
            "bufferView" : 0,
            "componentType" : 5126,
            "count" : 6456,
            "max" : [
                1.4170056581497192,
                0.6346526145935059,
                0.4411073327064514
            ],
            "min" : [
                -1.4170056581497192,
                -1.2718192338943481,
                -0.44082021713256836
            ],
            "type" : "VEC3"
        },
        {
            "bufferView" : 1,
            "componentType" : 5126,
            "count" : 6456,
            "type" : "VEC3"
        },
        {
            "bufferView" : 2,
            "componentType" : 5126,
            "count" : 6456,
            "type" : "VEC2"
        },
        {
            "bufferView" : 3,
            "componentType" : 5123,
            "count" : 36096,
            "type" : "SCALAR"
        },
        {
            "bufferView" : 4,
            "componentType" : 5126,
            "count" : 1118,
            "max" : [
                0.9999997019767761,
                1.0000004768371582,
                0.9999995231628418
            ],
            "min" : [
                -3.8478376865386963,
                -1,
                -0.9999987483024597
            ],
            "type" : "VEC3"
        },
        {
            "bufferView" : 5,
            "componentType" : 5126,
            "count" : 1118,
            "type" : "VEC3"
        },
        {
            "bufferView" : 6,
            "componentType" : 5126,
            "count" : 1118,
            "type" : "VEC2"
        },
        {
            "bufferView" : 7,
            "componentType" : 5123,
            "count" : 5724,
            "type" : "SCALAR"
        },
        {
            "bufferView" : 8,
            "componentType" : 5126,
            "count" : 16,
            "max" : [
                0.3753300607204437,
                0.5555707216262817,
                0.980785071849823
            ],
            "min" : [
                -3.223167896270752,
                0.19509035348892212,
                0.8154928684234619
            ],
            "type" : "VEC3"
        },
        {
            "bufferView" : 9,
            "componentType" : 5126,
            "count" : 16,
            "type" : "VEC3"
        },
        {
            "bufferView" : 10,
            "componentType" : 5126,
            "count" : 16,
            "type" : "VEC2"
        },
        {
            "bufferView" : 11,
            "componentType" : 5123,
            "count" : 36,
            "type" : "SCALAR"
        },
        {
            "bufferView" : 12,
            "componentType" : 5126,
            "count" : 574,
            "max" : [
                1,
                1,
                1.0000001192092896
            ],
            "min" : [
                -4.928077697753906,
                -7.958842754364014,
                -1.0000003576278687
            ],
            "type" : "VEC3"
        },
        {
            "bufferView" : 13,
            "componentType" : 5126,
            "count" : 574,
            "type" : "VEC3"
        },
        {
            "bufferView" : 14,
            "componentType" : 5126,
            "count" : 574,
            "type" : "VEC2"
        },
        {
            "bufferView" : 15,
            "componentType" : 5123,
            "count" : 2880,
            "type" : "SCALAR"
        },
        {
            "bufferView" : 16,
            "componentType" : 5126,
            "count" : 559,
            "max" : [
                0.9999997019767761,
                1.31148362159729,
                0.9999994039535522
            ],
            "min" : [
                -0.9999990463256836,
                -1,
                -0.9999987483024597
            ],
            "type" : "VEC3"
        },
        {
            "bufferView" : 17,
            "componentType" : 5126,
            "count" : 559,
            "type" : "VEC3"
        },
        {
            "bufferView" : 18,
            "componentType" : 5126,
            "count" : 559,
            "type" : "VEC2"
        },
        {
            "bufferView" : 19,
            "componentType" : 5123,
            "count" : 2880,
            "type" : "SCALAR"
        },
        {
            "bufferView" : 20,
            "componentType" : 5126,
            "count" : 240,
            "max" : [
                1.5645420551300049,
                0.41606220602989197,
                1.6166218519210815
            ],
            "min" : [
                -1.5645420551300049,
                -0.08794982731342316,
                -1.3306139707565308
            ],
            "type" : "VEC3"
        },
        {
            "bufferView" : 21,
            "componentType" : 5126,
            "count" : 240,
            "type" : "VEC3"
        },
        {
            "bufferView" : 22,
            "componentType" : 5126,
            "count" : 240,
            "type" : "VEC2"
        },
        {
            "bufferView" : 23,
            "componentType" : 5123,
            "count" : 1152,
            "type" : "SCALAR"
        },
        {
            "bufferView" : 24,
            "componentType" : 5126,
            "count" : 48,
            "max" : [
                1.0855622291564941,
                0.2071109116077423,
                0.9073305726051331
            ],
            "min" : [
                -1.0855622291564941,
                -0.04144139960408211,
                -1.04430091381073
            ],
            "type" : "VEC3"
        },
        {
            "bufferView" : 25,
            "componentType" : 5126,
            "count" : 48,
            "type" : "VEC3"
        },
        {
            "bufferView" : 26,
            "componentType" : 5126,
            "count" : 48,
            "type" : "VEC2"
        },
        {
            "bufferView" : 27,
            "componentType" : 5123,
            "count" : 138,
            "type" : "SCALAR"
        },
        {
            "bufferView" : 28,
            "componentType" : 5126,
            "count" : 4,
            "max" : [
                1,
                0,
                1
            ],
            "min" : [
                -1,
                0,
                -1
            ],
            "type" : "VEC3"
        },
        {
            "bufferView" : 29,
            "componentType" : 5126,
            "count" : 4,
            "type" : "VEC3"
        },
        {
            "bufferView" : 30,
            "componentType" : 5126,
            "count" : 4,
            "type" : "VEC2"
        },
        {
            "bufferView" : 31,
            "componentType" : 5123,
            "count" : 6,
            "type" : "SCALAR"
        }
    ],
    "bufferViews" : [
        {
            "buffer" : 0,
            "byteLength" : 77472,
            "byteOffset" : 0
        },
        {
            "buffer" : 0,
            "byteLength" : 77472,
            "byteOffset" : 77472
        },
        {
            "buffer" : 0,
            "byteLength" : 51648,
            "byteOffset" : 154944
        },
        {
            "buffer" : 0,
            "byteLength" : 72192,
            "byteOffset" : 206592
        },
        {
            "buffer" : 0,
            "byteLength" : 13416,
            "byteOffset" : 278784
        },
        {
            "buffer" : 0,
            "byteLength" : 13416,
            "byteOffset" : 292200
        },
        {
            "buffer" : 0,
            "byteLength" : 8944,
            "byteOffset" : 305616
        },
        {
            "buffer" : 0,
            "byteLength" : 11448,
            "byteOffset" : 314560
        },
        {
            "buffer" : 0,
            "byteLength" : 192,
            "byteOffset" : 326008
        },
        {
            "buffer" : 0,
            "byteLength" : 192,
            "byteOffset" : 326200
        },
        {
            "buffer" : 0,
            "byteLength" : 128,
            "byteOffset" : 326392
        },
        {
            "buffer" : 0,
            "byteLength" : 72,
            "byteOffset" : 326520
        },
        {
            "buffer" : 0,
            "byteLength" : 6888,
            "byteOffset" : 326592
        },
        {
            "buffer" : 0,
            "byteLength" : 6888,
            "byteOffset" : 333480
        },
        {
            "buffer" : 0,
            "byteLength" : 4592,
            "byteOffset" : 340368
        },
        {
            "buffer" : 0,
            "byteLength" : 5760,
            "byteOffset" : 344960
        },
        {
            "buffer" : 0,
            "byteLength" : 6708,
            "byteOffset" : 350720
        },
        {
            "buffer" : 0,
            "byteLength" : 6708,
            "byteOffset" : 357428
        },
        {
            "buffer" : 0,
            "byteLength" : 4472,
            "byteOffset" : 364136
        },
        {
            "buffer" : 0,
            "byteLength" : 5760,
            "byteOffset" : 368608
        },
        {
            "buffer" : 0,
            "byteLength" : 2880,
            "byteOffset" : 374368
        },
        {
            "buffer" : 0,
            "byteLength" : 2880,
            "byteOffset" : 377248
        },
        {
            "buffer" : 0,
            "byteLength" : 1920,
            "byteOffset" : 380128
        },
        {
            "buffer" : 0,
            "byteLength" : 2304,
            "byteOffset" : 382048
        },
        {
            "buffer" : 0,
            "byteLength" : 576,
            "byteOffset" : 384352
        },
        {
            "buffer" : 0,
            "byteLength" : 576,
            "byteOffset" : 384928
        },
        {
            "buffer" : 0,
            "byteLength" : 384,
            "byteOffset" : 385504
        },
        {
            "buffer" : 0,
            "byteLength" : 276,
            "byteOffset" : 385888
        },
        {
            "buffer" : 0,
            "byteLength" : 48,
            "byteOffset" : 386164
        },
        {
            "buffer" : 0,
            "byteLength" : 48,
            "byteOffset" : 386212
        },
        {
            "buffer" : 0,
            "byteLength" : 32,
            "byteOffset" : 386260
        },
        {
            "buffer" : 0,
            "byteLength" : 12,
            "byteOffset" : 386292
        }
    ],
    "buffers" : [
        {
            "byteLength" : 386304,
            "uri" : "data:application/octet-stream;base64,"
        }
    ]
}
